<svg enable-background="new 0 0 100 100" height="100" viewBox="0 0 100 100" width="100" xmlns="http://www.w3.org/2000/svg"><g fill="#fff"><circle cx="58.7" cy="76.7" r="2.2"/><circle cx="69.5" cy="76.7" r="2.2"/><path d="m37.3 43.1c-1.5-2.4-2.4-5.2-2.4-8.3 0-5.2 2.2-9.6 5.7-12.2-1.3-2.2-3.5-3.6-6.6-3.6-5.1 0-7.9 4.1-7.9 8.8 0 2.6.9 4.7 2.6 6.3 1 .9 1.8 2 1.8 3.3 0 1.2-.4 2.3-3.3 3.5-4.1 1.9-7.9 4.2-8 8.1 0 2.6 1.7 4.4 4.1 4.4h3.8c.6 0 1.2-.4 1.5-.9 1.9-3.3 5.3-5.5 8.2-6.9.7-.5 1.1-1.7.5-2.5z"/><path d="m58.4 66.4h13.3c.4 0 .8-.3.8-.7l2.4-8.6c.2-.6-.3-1.1-.8-1.1h-14.1-6.4l-.3-1.3c-.2-.6-.7-1-1.3-1h-2.2c-.7 0-1.4.6-1.4 1.3-.1.8.6 1.4 1.3 1.4h1.3l1.2 4 3 10.3c.2.6.7 1 1.3 1h15.6c.7 0 1.4-.6 1.4-1.3.1-.8-.6-1.4-1.3-1.4h-13.8c-.6 0-1.1-.4-1.3-.9v-.1c-.2-.8.4-1.6 1.3-1.6z"/><path d="m48.4 61.6-.4-1.5c-.9-.3-1.6-.8-2.2-1.5-.9-1.1-1.4-2.4-1.3-3.8.1-2.8 2.6-5 5.4-5h2.1c1.8 0 3.4.9 4.4 2.3h3.6 2.1c-1.6-1.1-3.5-2-5.4-2.8-3.2-1.3-3.6-2.6-3.6-3.9s.9-2.6 1.9-3.6c1.9-1.7 2.9-4.1 2.9-7 0-5.2-3.2-9.7-8.8-9.7s-8.8 4.5-8.8 9.7c0 2.8 1.1 5.2 2.9 7 1.1 1 1.9 2.3 1.9 3.6s-.5 2.6-3.6 3.9c-4.8 1.9-9.2 4.2-9.3 8.5 0 2.8 2 5.3 4.7 5.3h11.8z"/><path d="m63.1 34.8c0 3.1-.8 5.9-2.4 8.3-.6.9-.3 2 .7 2.6 2.8 1.3 6 3.3 7.9 6.4h4.8c1 0 1.9.3 2.7.9 1.3-.7 2.1-2.1 2.1-3.9-.1-3.9-3.9-6.3-8-8.2-2.9-1.2-3.3-2.4-3.3-3.5 0-1.2.8-2.4 1.8-3.3 1.7-1.6 2.6-3.7 2.6-6.3 0-4.8-2.8-8.8-7.9-8.8-3.1 0-5.3 1.4-6.6 3.6 3.4 2.6 5.6 6.9 5.6 12.2z"/></g></svg>